<svg xmlns="http://www.w3.org/2000/svg" xmlns:xlink="http://www.w3.org/1999/xlink" id="Ebene_1" viewBox="0 0 68.36 47.59"><defs><style>.cls-1{clip-path:url(#clippath);}.cls-2{fill:none;}.cls-2,.cls-3{stroke-width:0px;}.cls-3{fill:url(#Unbenannter_Verlauf_2);}</style><clipPath id="clippath"><path class="cls-2" d="M52.79,29.91v17.51l15.54-7.44.03-18.59-15.57,8.52h0ZM.09,40.03l15.48,7.56v-17.75L0,21.35l.09,18.68ZM17.57,28.66l15.57,8.5v-16.99l-15.57-9.56v18.05h0ZM35.18,20.15l.02,17.03,15.55-8.42V10.59l-15.57,9.56h0ZM0,19.07l15.56,8.49V9.53L.06.09,0,19.07ZM68.36,0l-15.57,9.47v18.15l15.57-8.51V0Z"></path></clipPath><linearGradient id="Unbenannter_Verlauf_2" x1="6.38" y1="4.47" x2="60.7" y2="42.8" gradientTransform="translate(0 47.88) scale(1 -1)" gradientUnits="userSpaceOnUse"><stop offset="0" stop-color="#214e96"></stop><stop offset=".1" stop-color="#444f90"></stop><stop offset="1" stop-color="#e52c44"></stop></linearGradient></defs><g id="Bildmarke_neu"><g class="cls-1"><rect class="cls-3" x="0" y="0" width="68.35" height="47.58"></rect></g></g></svg>